<!DOCTYPE svg PUBLIC "-//W3C//DTD SVG 20010904//EN" "http://www.w3.org/TR/2001/REC-SVG-20010904/DTD/svg10.dtd">
<svg version="1.0" xmlns="http://www.w3.org/2000/svg" width="197px" height="300px" viewBox="0 0 1970 3000" preserveAspectRatio="xMidYMid meet">
<g id="layer101" fill="#000000" stroke="none">
<path d="M645 1804 c-269 -40 -395 -125 -441 -296 -21 -79 -17 -258 6 -258 3 0 29 35 57 78 78 118 183 216 293 271 211 107 445 100 647 -20 86 -51 188 -153 254 -252 70 -107 74 -104 74 53 0 231 -85 341 -312 401 -67 18 -112 22 -313 24 -129 2 -248 1 -265 -1z"/>
<path d="M765 1619 c-125 -19 -235 -73 -335 -166 -166 -154 -260 -378 -260 -621 0 -153 36 -305 98 -416 26 -47 30 -49 140 -92 116 -45 213 -75 292 -91 l45 -9 -45 -13 c-52 -15 -200 -16 -247 -2 -48 14 -41 0 25 -49 69 -52 156 -94 237 -115 76 -19 223 -19 300 0 205 52 400 235 485 456 153 398 -4 871 -350 1053 -113 60 -259 85 -385 65z m-34 -492 c59 -26 119 -47 133 -47 15 0 75 21 134 47 135 59 189 65 264 31 71 -34 132 -97 175 -186 31 -62 37 -86 41 -158 4 -79 3 -88 -27 -149 -124 -252 -559 -369 -887 -239 -90 35 -195 105 -238 157 -59 74 -78 122 -78 203 0 168 97 325 237 381 55 23 131 10 246 -40z"/>
<path d="M476 1065 c-21 -14 -48 -36 -58 -48 -34 -39 -77 -141 -84 -197 -16 -140 103 -262 326 -332 64 -20 95 -23 210 -22 118 0 145 4 215 27 156 51 271 142 299 236 33 112 -42 289 -145 341 -58 30 -98 25 -211 -27 -148 -66 -177 -67 -314 -7 -137 60 -185 66 -238 29z m225 -198 c27 -18 35 -30 37 -60 2 -20 8 -37 14 -37 30 0 -24 -33 -105 -64 -132 -51 -142 -52 -161 -25 -24 35 -20 49 14 49 35 0 37 4 10 32 -28 30 -25 60 8 90 34 32 46 36 103 37 32 1 56 -6 80 -22z m486 3 c42 -25 56 -52 44 -83 -6 -14 -15 -28 -20 -32 -19 -11 -12 -25 12 -25 32 0 38 -8 25 -36 -18 -40 -47 -39 -162 6 -104 41 -128 56 -108 69 6 3 12 22 14 41 6 70 121 106 195 60z"/>
<path d="M1521 436 c-21 -44 -45 -90 -53 -100 -14 -17 -13 -23 8 -54 13 -19 33 -67 44 -106 32 -109 51 -146 83 -163 60 -31 141 17 141 83 0 30 -11 45 -82 117 -45 45 -82 89 -82 96 0 11 15 12 73 7 39 -3 86 -2 102 2 39 11 59 50 44 88 -14 39 -24 44 -102 44 -65 0 -71 2 -103 34 l-34 34 -39 -82z"/>
</g>
<g id="layer102" fill="#f9b232" stroke="none">
<path d="M77 2937 c-4 -11 -4 -24 0 -29 3 -6 1 -8 -4 -5 -6 4 -14 0 -17 -9 -3 -9 -6 -188 -6 -398 0 -292 -3 -385 -12 -394 -10 -10 2 -12 60 -10 l74 3 67 158 c37 87 73 163 80 170 10 10 12 -23 9 -161 l-3 -172 69 0 c66 0 68 1 53 18 -15 16 -17 51 -17 290 0 236 2 273 16 287 15 15 11 16 -57 13 l-73 -3 -32 -75 c-53 -122 -71 -162 -96 -215 l-23 -50 -5 176 c-4 147 -8 180 -22 196 -27 30 -41 73 -47 153 -4 48 -9 68 -14 57z"/>
<path d="M1240 2644 c0 -61 3 -75 12 -66 7 7 29 12 49 12 66 0 69 -13 69 -262 0 -139 -4 -218 -10 -218 -5 0 -10 -4 -10 -10 0 -6 32 -10 76 -10 61 0 74 3 66 13 -7 7 -12 101 -14 242 -3 213 -5 233 -24 265 -12 19 -27 34 -33 32 -7 -1 -10 2 -6 7 8 15 -47 40 -102 48 -27 3 -54 10 -60 16 -10 7 -13 -8 -13 -69z"/>
<path d="M550 2674 c6 -14 10 -140 10 -282 0 -209 -3 -261 -14 -278 -15 -20 -13 -21 50 -23 71 -2 91 4 75 23 -12 14 -20 577 -9 570 4 -2 9 0 13 6 4 6 -19 10 -64 10 l-71 0 10 -26z"/>
<path d="M779 2686 c9 -11 11 -93 9 -306 l-3 -291 60 3 59 3 75 170 c87 195 88 195 90 -5 1 -95 -3 -131 -14 -146 -14 -21 -13 -21 62 -23 64 -2 75 0 65 12 -12 15 -23 589 -10 581 4 -2 9 0 13 6 4 6 -19 10 -63 10 -61 0 -70 -2 -80 -22 -12 -26 -24 -55 -79 -184 -21 -50 -46 -101 -55 -115 -16 -23 -17 -18 -17 129 -1 88 3 162 9 173 10 18 7 19 -61 19 -61 0 -70 -2 -60 -14z m111 -1 c0 -3 -2 -5 -5 -5 -3 0 -5 2 -5 5 0 3 2 5 5 5 3 0 5 -2 5 -5z"/>
<path d="M1568 2687 c8 -9 12 -91 12 -233 1 -189 4 -226 20 -260 33 -75 98 -104 234 -104 l91 0 -3 202 c-1 112 -3 246 -5 300 -1 53 1 94 5 92 4 -2 9 0 13 6 4 6 -18 10 -62 10 l-68 0 3 -110 3 -110 -60 0 -60 0 -3 104 c-2 57 0 102 4 100 4 -2 9 0 13 6 4 6 -21 10 -71 10 -62 0 -74 -2 -66 -13z m215 -224 c-13 -2 -35 -2 -50 0 -16 2 -5 4 22 4 28 0 40 -2 28 -4z m27 -178 l0 -85 -40 0 c-61 0 -80 25 -80 105 l0 65 60 0 60 0 0 -85z"/>
</g>
<g id="layer103" fill="#ffc437" stroke="none">
<path d="M90 2965 c0 -3 2 -5 5 -5 3 0 5 2 5 5 0 3 -2 5 -5 5 -3 0 -5 -2 -5 -5z"/>
<path d="M83 2885 c0 -27 2 -38 4 -22 2 15 2 37 0 50 -2 12 -4 0 -4 -28z"/>
<path d="M55 2505 c0 -214 1 -301 2 -192 2 109 2 285 0 390 -1 106 -2 17 -2 -198z"/>
<path d="M154 2540 c0 -91 2 -128 3 -82 2 45 2 119 0 165 -1 45 -3 8 -3 -83z"/>
<path d="M353 2693 c15 -2 39 -2 55 0 15 2 2 4 -28 4 -30 0 -43 -2 -27 -4z"/>
<path d="M450 2695 c0 -3 2 -5 5 -5 3 0 5 2 5 5 0 3 -2 5 -5 5 -3 0 -5 -2 -5 -5z"/>
<path d="M573 2693 c20 -2 54 -2 75 0 20 2 3 4 -38 4 -41 0 -58 -2 -37 -4z"/>
<path d="M808 2693 c18 -2 45 -2 60 0 15 2 0 4 -33 4 -33 0 -45 -2 -27 -4z"/>
<path d="M1050 2695 c0 -3 2 -5 5 -5 3 0 5 2 5 5 0 3 -2 5 -5 5 -3 0 -5 -2 -5 -5z"/>
<path d="M1093 2693 c15 -2 39 -2 55 0 15 2 2 4 -28 4 -30 0 -43 -2 -27 -4z"/>
<path d="M1180 2695 c0 -3 2 -5 5 -5 3 0 5 2 5 5 0 3 -2 5 -5 5 -3 0 -5 -2 -5 -5z"/>
<path d="M1293 2693 c9 -2 23 -2 30 0 6 3 -1 5 -18 5 -16 0 -22 -2 -12 -5z"/>
<path d="M1560 2695 c0 -3 2 -5 5 -5 3 0 5 2 5 5 0 3 -2 5 -5 5 -3 0 -5 -2 -5 -5z"/>
<path d="M1607 2693 c18 -2 50 -2 70 0 21 2 7 4 -32 4 -38 0 -55 -2 -38 -4z"/>
<path d="M1837 2693 c18 -2 50 -2 70 0 21 2 7 4 -32 4 -38 0 -55 -2 -38 -4z"/>
<path d="M550 2675 c0 -3 2 -5 5 -5 3 0 5 2 5 5 0 3 -2 5 -5 5 -3 0 -5 -2 -5 -5z"/>
<path d="M1160 2665 c0 -3 2 -5 5 -5 3 0 5 2 5 5 0 3 -2 5 -5 5 -3 0 -5 -2 -5 -5z"/>
<path d="M1030 2655 c0 -3 2 -5 5 -5 3 0 5 2 5 5 0 3 -2 5 -5 5 -3 0 -5 -2 -5 -5z"/>
<path d="M1584 2450 c0 -113 2 -159 3 -102 2 56 2 148 0 205 -1 56 -3 10 -3 -103z"/>
<path d="M1020 2635 c0 -3 2 -5 5 -5 3 0 5 2 5 5 0 3 -2 5 -5 5 -3 0 -5 -2 -5 -5z"/>
<path d="M1440 2625 c0 -3 2 -5 5 -5 3 0 5 2 5 5 0 3 -2 5 -5 5 -3 0 -5 -2 -5 -5z"/>
<path d="M1283 2593 c9 -2 23 -2 30 0 6 3 -1 5 -18 5 -16 0 -22 -2 -12 -5z"/>
<path d="M1000 2585 c0 -3 2 -5 5 -5 3 0 5 2 5 5 0 3 -2 5 -5 5 -3 0 -5 -2 -5 -5z"/>
<path d="M260 2575 c0 -3 2 -5 5 -5 3 0 5 2 5 5 0 3 -2 5 -5 5 -3 0 -5 -2 -5 -5z"/>
<path d="M990 2565 c0 -3 2 -5 5 -5 3 0 5 2 5 5 0 3 -2 5 -5 5 -3 0 -5 -2 -5 -5z"/>
<path d="M1474 2335 c0 -121 2 -169 3 -107 2 62 2 161 0 220 -1 59 -3 8 -3 -113z"/>
<path d="M1374 2320 c0 -113 2 -159 3 -102 2 56 2 148 0 205 -1 56 -3 10 -3 -103z"/>
<path d="M230 2505 c0 -3 2 -5 5 -5 3 0 5 2 5 5 0 3 -2 5 -5 5 -3 0 -5 -2 -5 -5z"/>
<path d="M960 2495 c0 -3 2 -5 5 -5 3 0 5 2 5 5 0 3 -2 5 -5 5 -3 0 -5 -2 -5 -5z"/>
<path d="M200 2435 c0 -3 2 -5 5 -5 3 0 5 2 5 5 0 3 -2 5 -5 5 -3 0 -5 -2 -5 -5z"/>
<path d="M1030 2400 c0 -7 3 -10 7 -7 3 4 3 10 0 14 -4 3 -7 0 -7 -7z"/>
<path d="M1060 2400 c0 -7 3 -10 7 -7 3 4 3 10 0 14 -4 3 -7 0 -7 -7z"/>
<path d="M1728 2373 c18 -2 45 -2 60 0 15 2 0 4 -33 4 -33 0 -45 -2 -27 -4z"/>
<path d="M280 2365 c0 -3 2 -5 5 -5 3 0 5 2 5 5 0 3 -2 5 -5 5 -3 0 -5 -2 -5 -5z"/>
<path d="M250 2295 c0 -3 2 -5 5 -5 3 0 5 2 5 5 0 3 -2 5 -5 5 -3 0 -5 -2 -5 -5z"/>
<path d="M240 2275 c0 -3 2 -5 5 -5 3 0 5 2 5 5 0 3 -2 5 -5 5 -3 0 -5 -2 -5 -5z"/>
<path d="M1690 2235 c0 -3 2 -5 5 -5 3 0 5 2 5 5 0 3 -2 5 -5 5 -3 0 -5 -2 -5 -5z"/>
<path d="M220 2225 c0 -3 2 -5 5 -5 3 0 5 2 5 5 0 3 -2 5 -5 5 -3 0 -5 -2 -5 -5z"/>
<path d="M1590 2210 c0 -7 3 -10 7 -7 3 4 3 10 0 14 -4 3 -7 0 -7 -7z"/>
<path d="M210 2205 c0 -3 2 -5 5 -5 3 0 5 2 5 5 0 3 -2 5 -5 5 -3 0 -5 -2 -5 -5z"/>
<path d="M1600 2185 c0 -3 2 -5 5 -5 3 0 5 2 5 5 0 3 -2 5 -5 5 -3 0 -5 -2 -5 -5z"/>
<path d="M930 2165 c0 -3 2 -5 5 -5 3 0 5 2 5 5 0 3 -2 5 -5 5 -3 0 -5 -2 -5 -5z"/>
<path d="M190 2155 c0 -3 2 -5 5 -5 3 0 5 2 5 5 0 3 -2 5 -5 5 -3 0 -5 -2 -5 -5z"/>
<path d="M1620 2156 c0 -2 8 -10 18 -17 15 -13 16 -12 3 4 -13 16 -21 21 -21 13z"/>
<path d="M180 2135 c0 -3 2 -5 5 -5 3 0 5 2 5 5 0 3 -2 5 -5 5 -3 0 -5 -2 -5 -5z"/>
<path d="M1060 2125 c0 -3 2 -5 5 -5 3 0 5 2 5 5 0 3 -2 5 -5 5 -3 0 -5 -2 -5 -5z"/>
<path d="M1670 2115 c0 -3 2 -5 5 -5 3 0 5 2 5 5 0 3 -2 5 -5 5 -3 0 -5 -2 -5 -5z"/>
<path d="M1700 2105 c0 -3 2 -5 5 -5 3 0 5 2 5 5 0 3 -2 5 -5 5 -3 0 -5 -2 -5 -5z"/>
</g>


</svg>