<!DOCTYPE svg PUBLIC "-//W3C//DTD SVG 20010904//EN" "http://www.w3.org/TR/2001/REC-SVG-20010904/DTD/svg10.dtd">
<svg version="1.0" xmlns="http://www.w3.org/2000/svg" width="197px" height="300px" viewBox="0 0 1970 3000" preserveAspectRatio="xMidYMid meet">
<g id="layer101" fill="#000000" stroke="none">
<path d="M615 1799 c-313 -46 -461 -225 -424 -517 17 -129 16 -173 -5 -262 -22 -89 -25 -264 -7 -359 47 -248 203 -467 404 -566 192 -95 369 -96 566 -3 66 31 102 58 172 125 l88 84 15 -24 c9 -13 30 -67 46 -120 42 -133 93 -174 182 -148 113 34 128 149 32 242 -19 18 -34 36 -34 40 0 3 23 9 51 11 72 7 104 41 104 108 0 74 -24 94 -120 98 -71 4 -76 6 -106 40 -30 34 -31 37 -23 96 5 34 9 122 9 196 -1 106 -5 152 -23 216 -17 65 -19 88 -11 115 6 19 13 89 16 155 5 106 3 130 -15 190 -50 162 -178 252 -407 283 -89 13 -423 13 -510 0z m587 -87 c196 -52 266 -133 275 -315 3 -51 1 -102 -4 -115 -8 -22 -10 -21 -42 27 -97 151 -248 264 -408 305 -78 20 -240 21 -316 1 -136 -35 -278 -133 -364 -251 -91 -125 -84 -125 -81 1 3 91 7 118 27 159 43 88 119 145 242 180 99 29 171 35 384 31 172 -2 224 -7 287 -23z m-147 -182 c476 -180 599 -881 221 -1255 -193 -191 -445 -231 -676 -109 -67 36 -116 71 -108 79 2 2 34 -1 70 -7 64 -10 206 -3 193 10 -3 4 -32 12 -64 18 -31 7 -119 36 -194 65 l-137 54 -40 80 c-62 126 -74 187 -75 360 0 177 12 233 82 375 80 164 236 299 399 345 76 22 253 14 329 -15z m475 -1039 c0 -5 17 -20 38 -33 28 -17 52 -23 97 -23 57 0 60 -2 63 -26 4 -33 -14 -39 -119 -39 -125 0 -130 -34 -19 -131 98 -86 110 -133 41 -157 -47 -16 -65 5 -100 116 -17 53 -42 114 -56 134 l-25 37 32 66 c29 59 48 81 48 56z"/>
<path d="M472 1135 c-88 -45 -160 -156 -184 -284 -35 -186 116 -355 382 -428 90 -25 309 -24 400 1 162 44 303 144 356 252 24 49 26 63 22 137 -10 198 -152 357 -307 345 -38 -3 -87 -19 -151 -48 -52 -24 -108 -44 -125 -44 -16 0 -73 20 -125 43 -126 58 -193 64 -268 26z m248 -96 c130 -60 171 -60 300 1 117 55 166 59 229 17 74 -49 131 -166 131 -266 0 -57 -42 -135 -97 -180 -51 -42 -163 -97 -243 -118 -101 -27 -275 -24 -370 5 -101 32 -177 74 -233 128 -60 59 -77 98 -77 173 0 151 115 298 225 287 22 -2 83 -23 135 -47z"/>
<path d="M546 859 c-34 -27 -35 -70 -1 -97 28 -22 23 -32 -17 -32 -31 0 -34 -7 -15 -35 11 -14 21 -16 48 -11 57 11 174 63 171 76 -1 7 2 18 8 26 16 18 4 49 -27 74 -36 28 -130 28 -167 -1z"/>
<path d="M1014 854 c-22 -21 -25 -31 -19 -62 4 -20 10 -40 13 -44 13 -13 166 -68 189 -68 19 0 43 25 43 44 0 3 -16 6 -35 6 -42 0 -43 5 -10 36 32 30 32 49 -4 85 -26 26 -36 29 -91 29 -52 0 -65 -4 -86 -26z"/>
</g>
<g id="layer102" fill="#f9b232" stroke="none">
<path d="M90 2965 c0 -3 2 -5 5 -5 3 0 5 2 5 5 0 3 -2 5 -5 5 -3 0 -5 -2 -5 -5z"/>
<path d="M77 2937 c-4 -11 -4 -24 0 -29 3 -6 1 -8 -4 -5 -6 4 -14 0 -17 -9 -3 -9 -6 -188 -6 -398 0 -292 -3 -385 -12 -394 -10 -10 2 -12 60 -10 l74 3 67 158 c37 87 73 163 80 170 10 10 12 -23 9 -161 l-3 -172 69 0 c66 0 68 1 53 18 -15 16 -17 51 -17 290 0 236 2 273 16 287 15 15 11 16 -57 13 l-73 -3 -32 -75 c-53 -122 -71 -162 -96 -215 l-23 -50 -5 176 c-4 147 -8 180 -22 196 -27 30 -41 73 -47 153 -4 48 -9 68 -14 57z"/>
<path d="M1240 2644 c0 -61 3 -75 12 -66 7 7 29 12 49 12 66 0 69 -13 69 -262 0 -139 -4 -218 -10 -218 -5 0 -10 -4 -10 -10 0 -6 32 -10 76 -10 61 0 74 3 66 13 -7 7 -12 101 -14 242 -3 213 -5 233 -24 265 -12 19 -27 34 -33 32 -7 -1 -10 2 -6 7 8 15 -47 40 -102 48 -27 3 -54 10 -60 16 -10 7 -13 -8 -13 -69z"/>
<path d="M550 2674 c6 -14 10 -140 10 -282 0 -209 -3 -261 -14 -278 -15 -20 -13 -21 50 -23 71 -2 91 4 75 23 -12 14 -20 577 -9 570 4 -2 9 0 13 6 4 6 -19 10 -64 10 l-71 0 10 -26z"/>
<path d="M779 2686 c9 -11 11 -93 9 -306 l-3 -291 60 3 59 3 75 170 c87 195 88 195 90 -5 1 -95 -3 -131 -14 -146 -14 -21 -13 -21 62 -23 64 -2 75 0 65 12 -12 15 -23 589 -10 581 4 -2 9 0 13 6 4 6 -19 10 -63 10 -61 0 -70 -2 -80 -22 -12 -26 -24 -55 -79 -184 -21 -50 -46 -101 -55 -115 -16 -23 -17 -18 -17 129 -1 88 3 162 9 173 10 18 7 19 -61 19 -61 0 -70 -2 -60 -14z m111 -1 c0 -3 -2 -5 -5 -5 -3 0 -5 2 -5 5 0 3 2 5 5 5 3 0 5 -2 5 -5z"/>
<path d="M1568 2687 c8 -9 12 -91 12 -233 1 -189 4 -226 20 -260 33 -75 98 -104 234 -104 l91 0 -3 202 c-1 112 -3 246 -5 300 -1 53 1 94 5 92 4 -2 9 0 13 6 4 6 -18 10 -62 10 l-68 0 3 -110 3 -110 -60 0 -60 0 -3 104 c-2 57 0 102 4 100 4 -2 9 0 13 6 4 6 -21 10 -71 10 -62 0 -74 -2 -66 -13z m215 -224 c-13 -2 -35 -2 -50 0 -16 2 -5 4 22 4 28 0 40 -2 28 -4z m27 -178 l0 -85 -40 0 c-61 0 -80 25 -80 105 l0 65 60 0 60 0 0 -85z"/>
</g>


</svg>