<!DOCTYPE svg PUBLIC "-//W3C//DTD SVG 20010904//EN" "http://www.w3.org/TR/2001/REC-SVG-20010904/DTD/svg10.dtd">
<svg version="1.0" xmlns="http://www.w3.org/2000/svg" width="200px" height="100px" viewBox="0 0 2000 1000" preserveAspectRatio="xMidYMid meet">
<g id="layer101" fill="#000000" stroke="none">
</g>
<g id="layer102" fill="#f8b132" stroke="none">
<path d="M83 870 c-10 -15 -13 -114 -13 -404 0 -246 -4 -387 -10 -391 -26 -16 -4 -25 58 -25 68 0 68 0 138 166 39 91 75 166 80 167 12 3 16 -300 4 -308 -25 -15 -5 -25 53 -25 62 0 62 0 59 297 -2 234 0 298 10 304 8 5 -15 9 -54 9 -81 0 -72 10 -153 -180 -84 -198 -85 -198 -85 11 0 162 -2 177 -20 194 -24 22 -42 74 -49 148 -5 51 -7 55 -18 37z"/>
<path d="M1260 605 c0 -63 0 -63 43 -58 39 5 46 2 65 -22 21 -26 22 -38 22 -236 0 -128 -4 -210 -10 -214 -26 -16 -4 -25 62 -25 56 0 69 3 60 12 -9 9 -12 75 -12 235 0 187 -3 229 -16 256 -34 68 -70 91 -158 105 -56 9 -56 9 -56 -53z"/>
<path d="M565 355 c0 -305 0 -305 63 -305 57 0 77 10 52 25 -13 8 -13 525 0 559 10 26 10 26 -53 26 -62 0 -62 0 -62 -305z"/>
<path d="M795 355 c0 -306 0 -306 63 -303 64 3 64 3 131 161 37 87 73 163 80 170 10 10 12 -23 9 -161 -3 -172 -3 -172 62 -172 50 0 61 3 52 12 -16 16 -17 550 -1 579 10 19 7 20 -57 17 -68 -3 -68 -3 -137 -163 -37 -88 -73 -164 -78 -170 -5 -5 -9 54 -9 157 0 124 3 168 13 171 6 3 -19 6 -58 6 -70 1 -70 1 -70 -304z"/>
<path d="M1588 648 c9 -9 12 -75 12 -235 0 -242 4 -267 54 -312 40 -38 92 -51 199 -51 88 0 115 8 87 25 -14 9 -13 540 0 566 10 18 7 19 -62 18 -40 0 -67 -3 -60 -6 8 -3 12 -35 12 -109 0 -104 0 -104 -65 -104 -65 0 -65 0 -65 91 0 50 5 99 10 110 10 18 7 19 -62 19 -56 0 -69 -3 -60 -12z m205 -225 c-13 -2 -33 -2 -45 0 -13 2 -3 4 22 4 25 0 35 -2 23 -4z m37 -178 c0 -85 0 -85 -45 -85 -65 0 -85 23 -85 98 0 32 3 62 7 65 3 4 33 7 65 7 58 0 58 0 58 -85z"/>
</g>


</svg>