<!DOCTYPE svg PUBLIC "-//W3C//DTD SVG 20010904//EN" "http://www.w3.org/TR/2001/REC-SVG-20010904/DTD/svg10.dtd">
<svg version="1.0" xmlns="http://www.w3.org/2000/svg" width="165px" height="182px" viewBox="0 0 1650 1820" preserveAspectRatio="xMidYMid meet">
<g id="layer101" fill="#000000" stroke="none">
 <path d="M495 1804 c-269 -40 -395 -125 -441 -296 -21 -79 -17 -258 6 -258 3 0 29 35 57 78 78 118 183 216 293 271 211 107 445 100 647 -20 86 -51 188 -153 254 -252 70 -107 74 -104 74 53 0 231 -85 341 -312 401 -67 18 -112 22 -313 24 -129 2 -248 1 -265 -1z"/>
 <path d="M615 1619 c-125 -19 -235 -73 -335 -166 -166 -154 -260 -378 -260 -621 0 -153 36 -305 98 -416 26 -47 30 -49 140 -92 116 -45 213 -75 292 -91 l45 -9 -45 -13 c-52 -15 -200 -16 -247 -2 -48 14 -41 0 25 -49 69 -52 156 -94 237 -115 76 -19 223 -19 300 0 205 52 400 235 485 456 153 398 -4 871 -350 1053 -113 60 -259 85 -385 65z m-34 -492 c59 -26 119 -47 133 -47 15 0 75 21 134 47 135 59 189 65 264 31 71 -34 132 -97 175 -186 31 -62 37 -86 41 -158 4 -79 3 -88 -27 -149 -124 -252 -559 -369 -887 -239 -90 35 -195 105 -238 157 -59 74 -78 122 -78 203 0 168 97 325 237 381 55 23 131 10 246 -40z"/>
 <path d="M326 1065 c-21 -14 -48 -36 -58 -48 -34 -39 -77 -141 -84 -197 -16 -140 103 -262 326 -332 64 -20 95 -23 210 -22 118 0 145 4 215 27 156 51 271 142 299 236 33 112 -42 289 -145 341 -58 30 -98 25 -211 -27 -148 -66 -177 -67 -314 -7 -137 60 -185 66 -238 29z m225 -198 c27 -18 35 -30 37 -60 2 -20 8 -37 14 -37 30 0 -24 -33 -105 -64 -132 -51 -142 -52 -161 -25 -24 35 -20 49 14 49 35 0 37 4 10 32 -28 30 -25 60 8 90 34 32 46 36 103 37 32 1 56 -6 80 -22z m486 3 c42 -25 56 -52 44 -83 -6 -14 -15 -28 -20 -32 -19 -11 -12 -25 12 -25 32 0 38 -8 25 -36 -18 -40 -47 -39 -162 6 -104 41 -128 56 -108 69 6 3 12 22 14 41 6 70 121 106 195 60z"/>
 <path d="M1371 436 c-21 -44 -45 -90 -53 -100 -14 -17 -13 -23 8 -54 13 -19 33 -67 44 -106 32 -109 51 -146 83 -163 60 -31 141 17 141 83 0 30 -11 45 -82 117 -45 45 -82 88 -82 94 0 9 26 12 93 10 112 -2 127 5 127 69 0 54 -16 64 -105 64 -63 0 -69 2 -101 34 l-34 34 -39 -82z"/>
 </g>

</svg>