<!DOCTYPE svg PUBLIC "-//W3C//DTD SVG 20010904//EN" "http://www.w3.org/TR/2001/REC-SVG-20010904/DTD/svg10.dtd">
<svg version="1.0" xmlns="http://www.w3.org/2000/svg" width="166px" height="182px" viewBox="0 0 1660 1820" preserveAspectRatio="xMidYMid meet">
<g id="layer101" fill="#000000" stroke="none">
 <path d="M455 1799 c-313 -46 -461 -225 -424 -517 17 -129 16 -173 -5 -262 -22 -89 -25 -264 -7 -359 47 -248 203 -467 404 -566 192 -95 369 -96 566 -3 66 31 102 58 172 125 l88 84 15 -24 c9 -13 30 -67 46 -120 42 -133 93 -174 182 -148 113 34 128 149 32 242 -19 18 -34 36 -34 40 0 3 23 9 51 11 72 7 104 41 104 108 0 74 -24 94 -120 98 -71 4 -76 6 -106 40 -30 34 -31 37 -23 96 5 34 9 122 9 196 -1 106 -5 152 -23 216 -17 65 -19 88 -11 115 6 19 13 89 16 155 5 106 3 130 -15 190 -50 162 -178 252 -407 283 -89 13 -423 13 -510 0z m587 -87 c196 -52 266 -133 275 -315 3 -51 1 -102 -4 -115 -8 -22 -10 -21 -42 27 -97 151 -248 264 -408 305 -78 20 -240 21 -316 1 -136 -35 -278 -133 -364 -251 -91 -125 -84 -125 -81 1 3 91 7 118 27 159 43 88 119 145 242 180 99 29 171 35 384 31 172 -2 224 -7 287 -23z m-147 -182 c476 -180 599 -881 221 -1255 -193 -191 -445 -231 -676 -109 -67 36 -116 71 -108 79 2 2 34 -1 70 -7 64 -10 206 -3 193 10 -3 4 -32 12 -64 18 -31 7 -119 36 -194 65 l-137 54 -40 80 c-62 126 -74 187 -75 360 0 177 12 233 82 375 80 164 236 299 399 345 76 22 253 14 329 -15z m475 -1039 c0 -5 17 -20 38 -33 28 -17 52 -23 97 -23 57 0 60 -2 63 -26 4 -33 -14 -39 -119 -39 -125 0 -130 -34 -19 -131 98 -86 110 -133 41 -157 -47 -16 -65 5 -100 116 -17 53 -42 114 -56 134 l-25 37 32 66 c29 59 48 81 48 56z"/>
 <path d="M312 1135 c-88 -45 -160 -156 -184 -284 -35 -186 116 -355 382 -428 90 -25 309 -24 400 1 162 44 303 144 356 252 24 49 26 63 22 137 -10 198 -152 357 -307 345 -38 -3 -87 -19 -151 -48 -52 -24 -108 -44 -125 -44 -16 0 -73 20 -125 43 -126 58 -193 64 -268 26z m248 -96 c130 -60 171 -60 300 1 117 55 166 59 229 17 74 -49 131 -166 131 -266 0 -57 -42 -135 -97 -180 -51 -42 -163 -97 -243 -118 -101 -27 -275 -24 -370 5 -101 32 -177 74 -233 128 -60 59 -77 98 -77 173 0 151 115 298 225 287 22 -2 83 -23 135 -47z"/>
 <path d="M386 859 c-34 -27 -35 -70 -1 -97 28 -22 23 -32 -17 -32 -31 0 -34 -7 -15 -35 11 -14 21 -16 48 -11 57 11 174 63 171 76 -1 7 2 18 8 26 16 18 4 49 -27 74 -36 28 -130 28 -167 -1z"/>
 <path d="M854 854 c-22 -21 -25 -31 -19 -62 4 -20 10 -40 13 -44 13 -13 166 -68 189 -68 19 0 43 25 43 44 0 3 -16 6 -35 6 -42 0 -43 5 -10 36 32 30 32 49 -4 85 -26 26 -36 29 -91 29 -52 0 -65 -4 -86 -26z"/>
 </g>

</svg>